# Blender 3.6.0
# www.blender.org
mtllib dice.mtl
o Cube
v 0.800000 0.800000 -1.000000
v 0.800000 1.000000 -0.800000
v 1.000000 0.800000 -0.800000
v 0.800000 0.941421 -0.941421
v 0.915470 0.915470 -0.915470
v 0.941421 0.941421 -0.800000
v 0.941421 0.800000 -0.941421
v 0.800000 -1.000000 -0.800000
v 0.800000 -0.800000 -1.000000
v 1.000000 -0.800000 -0.800000
v 0.800000 -0.941421 -0.941421
v 0.915470 -0.915470 -0.915470
v 0.941421 -0.800000 -0.941421
v 0.941421 -0.941421 -0.800000
v 1.000000 0.800000 0.800000
v 0.800000 1.000000 0.800000
v 0.800000 0.800000 1.000000
v 0.941421 0.941421 0.800000
v 0.915470 0.915470 0.915470
v 0.800000 0.941421 0.941421
v 0.941421 0.800000 0.941421
v 1.000000 -0.800000 0.800000
v 0.800000 -0.800000 1.000000
v 0.800000 -1.000000 0.800000
v 0.941421 -0.800000 0.941421
v 0.915470 -0.915470 0.915470
v 0.800000 -0.941421 0.941421
v 0.941421 -0.941421 0.800000
v -0.800000 0.800000 -1.000000
v -1.000000 0.800000 -0.800000
v -0.800000 1.000000 -0.800000
v -0.941421 0.800000 -0.941421
v -0.915470 0.915470 -0.915470
v -0.941421 0.941421 -0.800000
v -0.800000 0.941421 -0.941421
v -1.000000 -0.800000 -0.800000
v -0.800000 -0.800000 -1.000000
v -0.800000 -1.000000 -0.800000
v -0.941421 -0.800000 -0.941421
v -0.915470 -0.915470 -0.915470
v -0.800000 -0.941421 -0.941421
v -0.941421 -0.941421 -0.800000
v -1.000000 0.800000 0.800000
v -0.800000 0.800000 1.000000
v -0.800000 1.000000 0.800000
v -0.941421 0.800000 0.941421
v -0.915470 0.915470 0.915470
v -0.800000 0.941421 0.941421
v -0.941421 0.941421 0.800000
v -0.800000 -1.000000 0.800000
v -0.800000 -0.800000 1.000000
v -1.000000 -0.800000 0.800000
v -0.800000 -0.941421 0.941421
v -0.915470 -0.915470 0.915470
v -0.941421 -0.800000 0.941421
v -0.941421 -0.941421 0.800000
vn -0.0000 -1.0000 -0.0000
vn -1.0000 -0.0000 -0.0000
vn -0.0000 -0.0000 1.0000
vn -0.0000 1.0000 -0.0000
vn 1.0000 -0.0000 -0.0000
vn 0.3251 0.3251 -0.8881
vn 0.3251 0.8881 -0.3251
vn 0.8881 0.3251 -0.3251
vn 0.3251 -0.8881 -0.3251
vn 0.3251 -0.3251 -0.8881
vn 0.8881 -0.3251 -0.3251
vn 0.8881 0.3251 0.3251
vn 0.3251 0.8881 0.3251
vn 0.3251 0.3251 0.8881
vn 0.8881 -0.3251 0.3251
vn 0.3251 -0.3251 0.8881
vn 0.3251 -0.8881 0.3251
vn -0.3251 0.3251 -0.8881
vn -0.8881 0.3251 -0.3251
vn -0.3251 0.8881 -0.3251
vn -0.8881 -0.3251 -0.3251
vn -0.3251 -0.3251 -0.8881
vn -0.3251 -0.8881 -0.3251
vn -0.8881 0.3251 0.3251
vn -0.3251 0.3251 0.8881
vn -0.3251 0.8881 0.3251
vn -0.3251 -0.8881 0.3251
vn -0.3251 -0.3251 0.8881
vn -0.8881 -0.3251 0.3251
vn -0.3827 -0.9239 -0.0000
vn -0.9239 -0.3827 -0.0000
vn -0.0000 -0.9239 -0.3827
vn -0.0000 -0.3827 -0.9239
vn 0.9239 -0.0000 -0.3827
vn 0.3827 -0.0000 -0.9239
vn -0.3827 -0.0000 0.9239
vn -0.9239 -0.0000 0.3827
vn 0.3827 -0.0000 0.9239
vn 0.9239 -0.0000 0.3827
vn -0.3827 -0.0000 -0.9239
vn -0.9239 -0.0000 -0.3827
vn -0.0000 0.9239 0.3827
vn -0.0000 0.3827 0.9239
vn 0.3827 0.9239 -0.0000
vn 0.9239 0.3827 -0.0000
vn -0.0000 -0.9239 0.3827
vn -0.0000 -0.3827 0.9239
vn -0.3827 0.9239 -0.0000
vn -0.9239 0.3827 -0.0000
vn -0.0000 0.9239 -0.3827
vn -0.0000 0.3827 -0.9239
vn 0.3827 -0.9239 -0.0000
vn 0.9239 -0.3827 -0.0000
vn -0.0000 -0.0000 -1.0000
vt 0.150000 0.525000
vt 0.350000 0.525000
vt 0.350000 0.725000
vt 0.150000 0.725000
vt 0.400000 0.025000
vt 0.600000 0.025000
vt 0.600000 0.225000
vt 0.400000 0.225000
vt 0.400000 0.775000
vt 0.600000 0.775000
vt 0.600000 0.975000
vt 0.400000 0.975000
vt 0.650000 0.525000
vt 0.850000 0.525000
vt 0.850000 0.725000
vt 0.650000 0.725000
vt 0.400000 0.525000
vt 0.600000 0.525000
vt 0.600000 0.725000
vt 0.400000 0.725000
vt 0.600000 0.475000
vt 0.625000 0.475000
vt 0.621478 0.500000
vt 0.600000 0.500000
vt 0.625000 0.525000
vt 0.650000 0.500000
vt 0.350000 0.500000
vt 0.375000 0.503522
vt 0.375000 0.525000
vt 0.400000 0.475000
vt 0.400000 0.500000
vt 0.375000 0.475000
vt 0.625000 0.725000
vt 0.625000 0.746478
vt 0.600000 0.750000
vt 0.650000 0.750000
vt 0.625000 0.775000
vt 0.400000 0.750000
vt 0.378522 0.750000
vt 0.375000 0.725000
vt 0.375000 0.775000
vt 0.350000 0.750000
vt 0.600000 0.275000
vt 0.600000 0.250000
vt 0.614434 0.250000
vt 0.625000 0.275000
vt 0.625000 0.225000
vt 0.625000 0.239434
vt 0.850000 0.500000
vt 0.864434 0.500000
vt 0.875000 0.525000
vt 0.400000 0.250000
vt 0.385566 0.250000
vt 0.375000 0.225000
vt 0.400000 0.275000
vt 0.375000 0.275000
vt 0.375000 0.260566
vt 0.125000 0.525000
vt 0.125000 0.510566
vt 0.150000 0.500000
vt 0.600000 0.000000
vt 0.614434 0.000000
vt 0.625000 0.025000
vt 0.625000 0.975000
vt 0.625000 0.989434
vt 0.600000 1.000000
vt 0.875000 0.725000
vt 0.875000 0.739434
vt 0.850000 0.750000
vt 0.150000 0.750000
vt 0.135566 0.750000
vt 0.125000 0.725000
vt 0.400000 1.000000
vt 0.385566 1.000000
vt 0.375000 0.975000
vt 0.375000 0.025000
vt 0.375000 0.010566
vt 0.400000 0.000000
s 0
usemtl Material
f 38/1/1 8/2/1 24/3/1 50/4/1
f 52/5/2 43/6/2 30/7/2 36/8/2
f 23/9/3 17/10/3 44/11/3 51/12/3
f 2/13/4 31/14/4 45/15/4 16/16/4
f 10/17/5 3/18/5 15/19/5 22/20/5
f 1/21/6 4/22/6 5/23/6 7/24/6
f 2/13/7 6/25/7 5/23/7 4/26/7
f 3/18/8 7/24/8 5/23/8 6/25/8
f 8/2/9 11/27/9 12/28/9 14/29/9
f 9/30/10 13/31/10 12/28/10 11/32/10
f 10/17/11 14/29/11 12/28/11 13/31/11
f 15/19/12 18/33/12 19/34/12 21/35/12
f 16/16/13 20/36/13 19/34/13 18/33/13
f 17/10/14 21/35/14 19/34/14 20/37/14
f 22/20/15 25/38/15 26/39/15 28/40/15
f 23/9/16 27/41/16 26/39/16 25/38/16
f 24/3/17 28/40/17 26/39/17 27/42/17
f 29/43/18 32/44/18 33/45/18 35/46/18
f 30/7/19 34/47/19 33/48/19 32/44/19
f 31/14/20 35/49/20 33/50/20 34/51/20
f 36/8/21 39/52/21 40/53/21 42/54/21
f 37/55/22 41/56/22 40/57/22 39/52/22
f 38/1/23 42/58/23 40/59/23 41/60/23
f 43/6/24 46/61/24 47/62/24 49/63/24
f 44/11/25 48/64/25 47/65/25 46/66/25
f 45/15/26 49/67/26 47/68/26 48/69/26
f 50/4/27 53/70/27 54/71/27 56/72/27
f 51/12/28 55/73/28 54/74/28 53/75/28
f 52/5/29 56/76/29 54/77/29 55/78/29
f 38/1/30 50/4/30 56/72/30 42/58/30
f 42/54/31 56/76/31 52/5/31 36/8/31
f 8/2/32 38/1/32 41/60/32 11/27/32
f 11/32/33 41/56/33 37/55/33 9/30/33
f 3/18/34 10/17/34 13/31/34 7/24/34
f 7/24/35 13/31/35 9/30/35 1/21/35
f 51/12/36 44/11/36 46/66/36 55/73/36
f 55/78/37 46/61/37 43/6/37 52/5/37
f 17/10/38 23/9/38 25/38/38 21/35/38
f 21/35/39 25/38/39 22/20/39 15/19/39
f 29/43/40 37/55/40 39/52/40 32/44/40
f 32/44/41 39/52/41 36/8/41 30/7/41
f 16/16/42 45/15/42 48/69/42 20/36/42
f 20/37/43 48/64/43 44/11/43 17/10/43
f 2/13/44 16/16/44 18/33/44 6/25/44
f 6/25/45 18/33/45 15/19/45 3/18/45
f 50/4/46 24/3/46 27/42/46 53/70/46
f 53/75/47 27/41/47 23/9/47 51/12/47
f 45/15/48 31/14/48 34/51/48 49/67/48
f 49/63/49 34/47/49 30/7/49 43/6/49
f 31/14/50 2/13/50 4/26/50 35/49/50
f 35/46/51 4/22/51 1/21/51 29/43/51
f 24/3/52 8/2/52 14/29/52 28/40/52
f 28/40/53 14/29/53 10/17/53 22/20/53
f 37/55/54 29/43/54 1/21/54 9/30/54
